# xmcd
#
# Track frame offsets:
#	150
#	1732
#	33017
#	72558
#	94609
#	125717
#	150638
#	205706
#
# Disc length: 3022 seconds
#
# Revision: 1
# Processed by: cddbd v1.5.2PL0 Copyright (c) Steve Scherf et al.
# Submitted via: audiograbber 1.83.01
#
DISCID=5c0bcc08
DTITLE=Grateful Dead - 95-06-30 Three Rivers Stadium, Pittsburgh PA
DYEAR=1900
DGENRE=
TTITLE0=Intro
TTITLE1=Hell In A Bucket
TTITLE2=West LA Fadeaway
TTITLE3=Take Me To The River
TTITLE4=Candyman
TTITLE5=When I Paint My Masterpiece
TTITLE6=Bird Song
TTITLE7=Promised Land
EXTD=
EXTT0=
EXTT1=
EXTT2=
EXTT3=
EXTT4=
EXTT5=
EXTT6=
EXTT7=
PLAYORDER=
